<?xml version="1.0" encoding="UTF-8"?>
<svg id="Layer_2" data-name="Layer 2" xmlns="http://www.w3.org/2000/svg" viewBox="0 0 363.4 89.16">
  <defs>
    <style>
      .cls-1 {
        isolation: isolate;
      }

      .cls-2 {
        fill: #fff;
        stroke-width: 0px;
      }
    </style>
  </defs>
  <g id="Layer_1-2" data-name="Layer 1">
    <g id="A_stronger_bond" data-name="A stronger bond" class="cls-1">
      <g class="cls-1">
        <path class="cls-2" d="m0,49.6c0-.6.4-1.25,1-1.25.15,0,.25.05.4.1.15.05.3.1.45.1.2,0,.4-.05.65-.15,6.2-2.2,12.55-3.95,19.05-5.05.7-.15,1.1-.45,1.45-1.05,6-10.15,13.1-19.55,20.7-28.55C46.4,10.55,55.25.9,60,.1c.25-.05.5-.1.75-.1,2.3,0,3.35,2.3,3.45,4.5v.65c0,9.05-8.9,26-12.55,34.25.2.05.4.1.55.1.3,0,.6-.05.85-.1,3.35-.25,6.7-.5,10.1-.5h1.4c.3,0,.55.05.6.4,0,.35-.2.45-.5.45-.2,0-.4-.05-.55-.05-4.1.05-8.15.5-12.2.9-.7.05-1.55.5-1.85,1.15-7.6,15.95-11.9,24.15-19.3,40.2-.75,1.5-1.55,2.8-2.25,4.35-.25.5-.4,1-.85,1-.15,0-.25-.05-.4-.1-.2-.1-.3-.3-.3-.55,0-.45.3-1.05.45-1.3l3.2-5.4c7.05-15.25,10.95-22.95,18.1-38.15.1-.2.2-.4.2-.65v-.1h-.2c-2.75,0-20.45,3.1-23.2,3.65-.7.15-1.2.4-1.6,1.05-2.2,3.45-6.8,11.4-8.55,15.3-.15.35-.2.55-.2.7,0,.55.55.45.55,1.2,0,.15,0,.4-.1.7-.4,1.5-1.3,2.7-2.4,3.75-.4.35-.85.5-1.35.5-1,0-2-.75-2-1.95,0-.25.05-.5.15-.8,1.1-3.1,8.15-14.95,10.15-18.25.2-.3.45-.6.55-1.05-.15-.05-.25-.1-.35-.1-.2,0-.45.1-.65.15-5.15,1.15-10.25,2.6-15.25,4.35-.85.3-2.05.75-2.95.75-.2,0-.35,0-.5-.05-.7-.25-1-.8-1-1.35Zm25.85-7.05c7.8-1.05,15.25-2,23.1-2.8.55-.05.85-.25,1.05-.8,3.35-7.15,9.6-19.75,11.55-27.15.35-1.25,1.1-4.3,1.1-6.7,0-1.9-.5-3.45-2-3.45-.6,0-1.3.25-2.25.75-3.85,2.2-9.4,7.95-12.3,11.2-6.8,7.6-12.75,15.85-17.95,24.65-.8,1.35-1.6,2.65-2.3,4.3Z"/>
        <path class="cls-2" d="m75.2,70.2c-2.35,0-3.75-1.35-3.75-3.5,0-1.2.45-2.7,1.4-4.3,3.45-5.9,10.55-9.9,16.6-12.05-.4-.95-10.4.1-11.35-3.25-.05-.2-.1-.45-.1-.65,0-4.1,8.7-10.7,12.2-10.7.15,0,.3.05.4.05,1.05.15,2.3,1.1,2.6,2.1.05.1.05.2.05.35,0,.75-.6,2-1.4,2-.45,0-.9-.3-1.35-1.2-.15-.35-.5-.5-1-.5-2.75,0-9.75,5-9.75,7.7v.1c.1,1.2,2.6,1.6,5.1,1.85,2.55.2,5.1.25,5.9,1.65,3.35-1.2,11.55-2.95,15.1-3.4.25-.05.45-.05.65-.05.35,0,.55.05.55.15s-.2.2-.75.3c-3.1.5-11.7,2.4-14.85,3.75-.1.05-.1.1-.1.2,0,.3.45,1.1.45,2.55,0,.8-.15,1.85-.65,3.15-2.15,5.45-7.05,10.8-12.5,12.95-1.3.5-2.45.75-3.45.75Zm-2.95-3.55c0,1.65,1.1,2.5,2.8,2.5.8,0,1.8-.2,2.85-.6,5.5-2.05,10.9-8.3,12.55-13.95.15-.45.2-.95.2-1.4,0-.65-.15-1.3-.55-1.95-5.3,1.7-13.55,6.45-16.5,11.5-.95,1.6-1.35,2.9-1.35,3.9Z"/>
        <path class="cls-2" d="m88.95,27.55c-.7,0-.85-.2-1-.45-.05-.1-.1-.25-.1-.35,0-.35.25-.75,1.2-1.05,1.4-.5,2.75-.6,4.2-.6h2.75c5.25-.2,16.15-.75,21.45-.9.8-.05.95-.3,1.3-.95.65-1.15,4.25-7.75,5.25-8.85.4-.45.9-.8,1.45-.8.4,0,.8.15,1.2.5.1.1.15.2.15.35,0,.4-.35.95-.7,1.45-1.1,1.9-3.8,5.85-4.85,7.5-.15.25-.25.4-.25.55s.15.2.5.2c1-.05,2.55-.05,4.45-.05,8.95,0,25.65.35,30.45.5,1.25.05,2.85.1,4.1.2.55.1.75.3.75.5,0,.35-.45.7-.5.7h-.05c-.35,0-1.45-.45-1.7-.5-1.75-.15-7.5-.2-14.1-.2-9.95,0-21.8.15-24.35.25-.75,0-1.3.75-1.55,1.15-5.55,10.1-17.25,30.5-20.35,41.1-.1.35-.15.8-.2,1.15.3.25.95.25.95.7,0,.05,0,.1-.05.2-.2.45-.75.9-1.25.9s-.95-.4-.95-1.45c0-.4.05-.85.2-1.4,1.9-8.35,15.2-33.9,19.6-41.3.2-.3.25-.5.25-.65,0-.25-.25-.3-.75-.3-7.65.4-17.85.3-26,1.75-.65.1-1.15.15-1.5.15Z"/>
        <path class="cls-2" d="m115.5,61.15c0-4.25,4.6-9.9,5.15-11.95,0-.1.05-.2.05-.3,0-1.35-2.85-1.25-4.1-2.1-.25-.25-.4-.65-.4-1.15,0-.9.45-2.05,1.3-3.05.3-.3.7-.45,1.1-.45.85,0,1.7.6,1.7,1.55,0,.45-.15.95-.65,1.5,1.75.6,3.45,1.2,3.45,3.1,0,.3,0,.6-.1.95-.3,1.6-6.4,8.15-6.4,12.45v.3c.1,1.1.65,1.95,1.85,2.25.2.05.45.1.7.1,5.85,0,20.1-15.2,24-17.4.35-.2.7-.35,1.05-.55.1.1.15.2.2.25-.2.2-.4.45-.65.55-6.1,3.8-18.5,17.8-24.8,17.8-.25,0-.45,0-.65-.05-1.65-.3-2.25-1.2-2.6-2.3-.15-.45-.2-.95-.2-1.5Z"/>
        <path class="cls-2" d="m158.95,44c-2.9,1.15-5.75,2.1-8.75,2.1-.8,0-1.6-.05-2.4-.2-.05.2-.1.3-.1.35.15.5.2,1,.2,1.5,0,1.3-.45,2.55-1.2,3.7-1.2,1.95-2.75,3.55-4.6,4.9-.6.45-1.25.7-1.75.7-.8,0-1.35-.55-1.35-1.6,0-.35.05-.85.25-1.35,1-2.8,6.15-10.8,8.45-11.3.1,0,.15-.05.25-.05.45,0,.75.3.75.7,0,.15-.05.35-.2.5-.1.2-.3.4-.4.55.05.2.2.25.35.25h.25c.45.05.9.05,1.35.05,1.85,0,3.6-.35,5.35-1.05,1.4-.55,2.85-1.15,4.25-1.7.35-.15.7-.3,1.1-.3.25,0,.45.05.7.3.25.3.35.6.35.9s-.1.65-.25.95c-.4.85-.8,1.6-1.2,2.4-.15.25-.35.5-.4.95,1.1-.85,2.8-2.45,3.95-2.8.2-.05.4-.1.55-.1,1,0,1.25,1.1,1.25,2.1v1.5c0,2.3.25,4.95,3,4.95h.2c4.1-.2,10.25-4.6,12.35-6.5.05,0,.1-.05.1-.05.2,0,.3.25.3.4,0,.05,0,.1-.05.15-2.55,2.5-9.05,6.8-12.65,6.95h-.25c-2.4,0-4.05-1.55-4.2-4-.05-.45-.05-.85-.05-1.25,0-.9.05-1.65.05-2.2s-.05-.85-.3-.85c-.3,0-.75.35-1.55,1-4.3,3.55-4.5,4.25-7,8.85-.25.45-.55,1.05-1.1,1.05-.15,0-.3,0-.45-.1-.35-.15-.5-.45-.5-.8,0-.45.3-1,.4-1.3,1.55-4.1,3.05-6.25,4.95-9.9v-.35Zm-12.35,3.65c0-.3-.05-.55-.2-.85-1.25,1.1-4.65,6.55-4.95,7.95,1.95-1.3,4.35-3.65,4.95-5.9.1-.4.2-.8.2-1.2Z"/>
        <path class="cls-2" d="m194.45,47.3c0-.2-.05-.3-.15-.3-.9.2-8.35,3.7-9.8,4.35-.9.4-1.85.75-2.85,1-.3.1-.6.15-.9.15-1.1,0-1.85-.7-1.85-1.85,0-.4.1-.8.25-1.25,1.3-3.55,7.05-7.8,11-7.8,1.3,0,2.35.45,3.05,1.55.4.65.5,1.45.75,2.25.05,0,.2,0,.35.05.3-.1.55-.2.8-.2.75,0,1.2.6,1.2,1.35,0,.15-.05.25-.05.4-.15.7-1.4,3.7-2,5.05,5.1-2.4,9.85-4.8,16.05-5.65h.15c.2,0,.35.05.35.15,0,.05-.1.15-.4.2-4.5.9-12.4,4.05-16.05,6.15-.55.25-.9.65-1.3,1.55-4.85,9.1-14.8,33-26.2,34.6-.35.05-.7.1-1,.1-2.45,0-3.3-1.6-3.3-3.65,0-2.75,1.5-6.35,2.6-8.25,5-8.4,15.6-17.4,26.4-24.1.7-.3,2.9-4.7,2.9-5.85Zm-2.95,7c-6.6,3.9-19.55,13.3-25.55,23.45-.85,1.4-2.5,5.05-2.5,7.6,0,1.5.6,2.65,2.35,2.65.2,0,.45,0,.7-.05,11.4-1.7,19-21.9,25-33.65Zm-.15-7.95c-.45-.75-1.05-1.1-1.8-1.1-.25,0-.5.05-.75.1-2.25.6-4.3,1.65-6,3.3-.35.4-.7.8-1.15,1.3,1.45,0,8.25-2.55,9.7-3.6Z"/>
        <path class="cls-2" d="m211.35,56.3c-2.6,0-3.65-1.95-3.65-3.95,0-.8.15-1.6.45-2.3,1.45-3.55,4-6.1,7.6-7.6.5-.25.95-.3,1.35-.3,1.05,0,1.6.75,1.6,1.6,0,.5-.15,1-.45,1.4-.5.7-1,1.45-1.7,1.9-1.4.95-2.95,1.8-4.45,2.65-.45.25-.95.4-1.45.4-.3,0-.6-.05-.95-.15-.6.9-.85,1.8-.85,2.6,0,1.6,1.15,2.7,3.2,2.7.55,0,1.1-.05,1.7-.2,4.9-1.2,12.9-5.55,16.75-8.5.1-.1.2-.15.3-.15.05,0,.1.05.1.15,0,.05-.05.15-.2.3-3.6,3.15-13.9,9.2-19.05,9.45h-.3Zm-.8-7.75c2.15-.65,5.35-3.2,5.6-4.45-2.4.75-4,2.45-5.6,4.45Z"/>
        <path class="cls-2" d="m228.3,61.15c0-4.25,4.6-9.9,5.15-11.95,0-.1.05-.2.05-.3,0-1.35-2.85-1.25-4.1-2.1-.25-.25-.4-.65-.4-1.15,0-.9.45-2.05,1.3-3.05.3-.3.7-.45,1.1-.45.85,0,1.7.6,1.7,1.55,0,.45-.15.95-.65,1.5,1.75.6,3.45,1.2,3.45,3.1,0,.3,0,.6-.1.95-.3,1.6-6.4,8.15-6.4,12.45v.3c.1,1.1.65,1.95,1.85,2.25.2.05.45.1.7.1,5.85,0,20.1-15.2,24-17.4.35-.2.7-.35,1.05-.55.1.1.15.2.2.25-.2.2-.4.45-.65.55-6.1,3.8-18.5,17.8-24.8,17.8-.25,0-.45,0-.65-.05-1.65-.3-2.25-1.2-2.6-2.3-.15-.45-.2-.95-.2-1.5Z"/>
        <path class="cls-2" d="m272.05,58.1c-.5,0-.85-.45-.85-1,0-.2,0-.4.1-.6,1.05-2.95,2.15-5.9,3.3-8.8,3.15-7.65,7.2-14.7,12.8-20.85,1.55-1.65,4.2-4.2,6.45-4.8.2-.05.35-.05.55-.05,1,0,1.55.8,1.55,1.8,0,.4-.05.85-.25,1.25-.25.65-.6,1.3-1,1.9-4.2,6.9-9.35,13.05-15.25,18.5-1.5,1.35-2.55,2.8-3.25,4.65-.25.7-.55,1.35-.65,2.15l5.5-5c.9-.75,2.55-1.75,3.95-1.75.5,0,.95.15,1.35.45,1.4,1.2.8,2.75,1.15,2.75h.1c4.1-1.5,7.35-1.95,11.6-2.25.35-.05.6-.05.8-.05.1,0,.15.05.15.15,0,.05-.05.1-.15.1-1.45.2-2.25.25-3.6.45-2.8.45-5.4,1-8.15,2.2-.65.3-1.05.6-1.25,1.35-1.8,6.2-4.9,9.65-9.15,14-.45.5-1.1.9-1.7,1.2-.4.25-.85.35-1.3.35-1.15,0-2.15-.85-2.15-2.4,0-1.2.6-2.8,2.2-4.75,4-4.8,6.2-6.55,10.85-9.6.2-.15.3-.15.3-.35.05-.25.05-.6.05-.9v-.35c-.15-.8-.6-1.35-1.25-1.35-.25,0-.5.05-.75.2-4.35,2-8.15,7-11,10.75-.35.45-.7.65-1.05.65Zm13.75-7.55s-.05-.05-.1-.05c-.15,0-.6.35-.8.5-3.55,2.3-6.6,5.15-9.05,8.55-1.35,1.85-1.95,3.35-1.95,4.3,0,.65.3,1,.8,1,.55,0,1.4-.4,2.4-1.35,3.45-3.25,6.2-6.95,8.15-11.3.2-.5.35-1,.5-1.5,0-.05.05-.1.05-.15Zm-6.75-6c.15-.1.3-.2.4-.35,5.45-5.65,11.1-12,14.75-19.05.2-.4.25-.9.4-1.35-.1-.05-.2-.1-.25-.15-.35.2-.75.35-1.05.6-.8.65-1.65,1.3-2.35,2.05-4.9,5.45-8.85,11.55-11.9,18.25Z"/>
        <path class="cls-2" d="m315,44c-2.9,1.15-5.75,2.1-8.75,2.1-.8,0-1.6-.05-2.4-.2-.05.2-.1.3-.1.35.15.5.2,1,.2,1.5,0,1.3-.45,2.55-1.2,3.7-1.2,1.95-2.75,3.55-4.6,4.9-.6.45-1.25.7-1.75.7-.8,0-1.35-.55-1.35-1.6,0-.35.05-.85.25-1.35,1-2.8,6.15-10.8,8.45-11.3.1,0,.15-.05.25-.05.45,0,.75.3.75.7,0,.15-.05.35-.2.5-.1.2-.3.4-.4.55.05.2.2.25.35.25h.25c.45.05.9.05,1.35.05,1.85,0,3.6-.35,5.35-1.05,1.4-.55,2.85-1.15,4.25-1.7.35-.15.7-.3,1.1-.3.25,0,.45.05.7.3.25.3.35.6.35.9s-.1.65-.25.95c-.4.85-.8,1.6-1.2,2.4-.15.25-.35.5-.4.95,1.1-.85,2.8-2.45,3.95-2.8.2-.05.4-.1.55-.1,1,0,1.25,1.1,1.25,2.1v1.5c0,2.3.25,4.95,3,4.95h.2c4.1-.2,10.25-4.6,12.35-6.5.05,0,.1-.05.1-.05.2,0,.3.25.3.4,0,.05,0,.1-.05.15-2.55,2.5-9.05,6.8-12.65,6.95h-.25c-2.4,0-4.05-1.55-4.2-4-.05-.45-.05-.85-.05-1.25,0-.9.05-1.65.05-2.2s-.05-.85-.3-.85c-.3,0-.75.35-1.55,1-4.3,3.55-4.5,4.25-7,8.85-.25.45-.55,1.05-1.1,1.05-.15,0-.3,0-.45-.1-.35-.15-.5-.45-.5-.8,0-.45.3-1,.4-1.3,1.55-4.1,3.05-6.25,4.95-9.9v-.35Zm-12.35,3.65c0-.3-.05-.55-.2-.85-1.25,1.1-4.65,6.55-4.95,7.95,1.95-1.3,4.35-3.65,4.95-5.9.1-.4.2-.8.2-1.2Z"/>
        <path class="cls-2" d="m336.05,55c-1,0-1.75-.75-1.75-2.1,0-.55.15-1.25.45-2,1.35-3.35,4.1-7.5,7.2-9.4.8-.5,1.55-.8,2.2-.8.9,0,1.8.45,2.8,1.4,1.55-2.15,3.15-4.15,4.5-6.3,3.15-5.25,5.65-9.55,9.75-14.15.2-.2.45-.5.75-.6.2-.05.35-.05.55-.05.55,0,.9.25.9.7,0,.15-.05.35-.15.55-.4.6-.75,1.2-1.2,1.75-8.65,11.1-15.15,23.4-20.25,36.5-.5,1.25-.85,2.6-1.25,3.9-.15.65-.3,1.25-.3,1.9,0,.3,0,.65.1.95v.15c0,.25-.2.45-.4.45-.35,0-.75-.45-.75-1.7,0-.65.1-1.55.4-2.75,1.5-6,4.1-11.65,6.6-17.3.1-.2.25-.35.25-.6,0-.15-.1-.3-.3-.5-2.45,2.8-5.85,7.9-8.75,9.6-.45.25-.9.4-1.35.4Zm1-2.35c3.3-2.4,5.5-5.5,8.2-8.55-.5-.05-.75-.15-1-.15-.3,0-.6.1-1.15.55-2.55,2-4.45,4.5-5.85,7.4-.1.15-.1.3-.2.75Z"/>
      </g>
    </g>
  </g>
</svg>